<?xml version="1.0" encoding="UTF-8"?>
<svg xmlns="http://www.w3.org/2000/svg" version="1.1" xmlns:xlink="http://www.w3.org/1999/xlink" viewBox="0 0 1024 1024">
  <!-- Generator: Adobe Illustrator 29.8.1, SVG Export Plug-In . SVG Version: 2.1.1 Build 2)  -->
  <defs>
    <style>
      .st0 {
        fill: #5a9dc3;
      }

      .st1 {
        fill: #e2401b;
        stroke: #861300;
      }

      .st1, .st2, .st3 {
        stroke-width: 27px;
      }

      .st1, .st2, .st3, .st4, .st5 {
        stroke-miterlimit: 10;
      }

      .st6 {
        fill: url(#linear-gradient10);
      }

      .st2 {
        fill: url(#linear-gradient23);
      }

      .st2, .st3 {
        stroke: #5a195b;
      }

      .st7 {
        fill: url(#linear-gradient21);
      }

      .st8 {
        fill: #782d79;
      }

      .st9 {
        fill: url(#linear-gradient27);
      }

      .st3 {
        fill: url(#linear-gradient22);
      }

      .st10, .st5 {
        fill: #fff;
      }

      .st11 {
        fill: #b9470d;
      }

      .st12 {
        fill: url(#linear-gradient26);
      }

      .st13 {
        fill: url(#linear-gradient1);
      }

      .st14 {
        fill: url(#linear-gradient9);
      }

      .st4 {
        fill: #ffe200;
        stroke: #000;
        stroke-width: 42px;
      }

      .st15 {
        fill: url(#linear-gradient18);
      }

      .st16 {
        fill: url(#linear-gradient8);
      }

      .st17 {
        fill: url(#linear-gradient11);
      }

      .st5 {
        stroke: #231f20;
        stroke-width: 23px;
      }

      .st18 {
        fill: url(#linear-gradient16);
      }

      .st19 {
        fill: url(#linear-gradient24);
      }

      .st20 {
        opacity: .8;
      }

      .st21 {
        fill: url(#linear-gradient30);
      }

      .st22 {
        fill: #231f20;
      }

      .st23 {
        fill: url(#linear-gradient29);
      }

      .st24 {
        fill: #adafb2;
      }

      .st24, .st25 {
        display: none;
      }

      .st26 {
        fill: url(#linear-gradient19);
      }

      .st27 {
        fill: url(#linear-gradient12);
      }

      .st28 {
        fill: url(#linear-gradient28);
      }

      .st29 {
        fill: url(#linear-gradient7);
      }

      .st30 {
        fill: url(#linear-gradient20);
      }

      .st31 {
        fill: url(#linear-gradient4);
      }

      .st32 {
        fill: url(#linear-gradient14);
      }

      .st33 {
        fill: url(#linear-gradient2);
        opacity: .23;
      }

      .st34 {
        fill: url(#linear-gradient5);
      }

      .st35 {
        fill: #6cb9de;
      }

      .st36 {
        fill: url(#linear-gradient3);
      }

      .st37 {
        fill: url(#linear-gradient25);
      }

      .st38 {
        fill: url(#linear-gradient15);
      }

      .st39 {
        fill: #af3219;
      }

      .st40 {
        fill: url(#linear-gradient17);
      }

      .st41 {
        fill: url(#linear-gradient6);
      }

      .st42 {
        fill: #23577f;
      }

      .st43 {
        fill: url(#linear-gradient13);
      }

      .st44 {
        fill: url(#linear-gradient);
        fill-opacity: .58;
      }
    </style>
    <linearGradient id="linear-gradient" x1="511.9" y1="156.37" x2="511.9" y2="868.54" gradientUnits="userSpaceOnUse">
      <stop offset="0" stop-color="#adafb2" stop-opacity=".1"/>
      <stop offset="1" stop-color="#231f20"/>
    </linearGradient>
    <linearGradient id="linear-gradient1" x1="290.3" y1="534.68" x2="337.48" y2="616.39" gradientTransform="translate(4618.59 3748.09) rotate(-83.79) scale(8.83 -7.7)" gradientUnits="userSpaceOnUse">
      <stop offset="0" stop-color="#fff"/>
      <stop offset="0" stop-color="#cf6b4f"/>
      <stop offset="1" stop-color="#fff" stop-opacity="0"/>
    </linearGradient>
    <linearGradient id="linear-gradient2" x1="90.9" y1="438.68" x2="847.4" y2="438.68" gradientUnits="userSpaceOnUse">
      <stop offset="0" stop-color="#fff"/>
      <stop offset=".2" stop-color="#231f20"/>
    </linearGradient>
    <linearGradient id="linear-gradient3" x1="538.35" y1="121.63" x2="588.17" y2="207.92" gradientTransform="translate(2834.16 -67.19) rotate(-180) scale(4.4 -2.16)" gradientUnits="userSpaceOnUse">
      <stop offset="0" stop-color="#fff"/>
      <stop offset="0" stop-color="#fff"/>
      <stop offset="1" stop-color="#fff" stop-opacity="0"/>
    </linearGradient>
    <linearGradient id="linear-gradient4" x1="239.94" y1="279.36" x2="416.08" y2="279.36" gradientTransform="translate(-8.54 15.04) rotate(-1.63)" gradientUnits="userSpaceOnUse">
      <stop offset="0" stop-color="#231f20" stop-opacity="0"/>
      <stop offset="0" stop-color="#231f20" stop-opacity=".07"/>
      <stop offset="0" stop-color="#231f20" stop-opacity=".29"/>
      <stop offset="0" stop-color="#231f20" stop-opacity=".68"/>
      <stop offset="0" stop-color="#231f20"/>
    </linearGradient>
    <linearGradient id="linear-gradient5" x1="-99.48" y1="327.57" x2="76.65" y2="327.57" gradientTransform="translate(708.63 -42.78) rotate(-178.37) scale(1 -1)" xlink:href="#linear-gradient4"/>
    <linearGradient id="linear-gradient6" x1="201.06" y1="574.39" x2="377.19" y2="574.39" gradientTransform="translate(663.03 655.21) rotate(-68) scale(.75 -.78)" xlink:href="#linear-gradient4"/>
    <linearGradient id="linear-gradient7" x1="-8.46" y1="1073.24" x2="167.67" y2="1073.24" gradientTransform="translate(-55.82 655.21) rotate(-112) scale(.75 .78)" xlink:href="#linear-gradient4"/>
    <linearGradient id="linear-gradient8" x1="513.67" y1="648.19" x2="513.67" y2="731.89" gradientUnits="userSpaceOnUse">
      <stop offset="0" stop-color="#231f20"/>
      <stop offset="1" stop-color="#231f20"/>
    </linearGradient>
    <linearGradient id="linear-gradient9" x1="266.31" y1="360.41" x2="412.94" y2="360.41" gradientTransform="translate(127.49 -88.61) rotate(18.53)" xlink:href="#linear-gradient4"/>
    <linearGradient id="linear-gradient10" x1="-110.54" y1="486.73" x2="36.1" y2="486.73" gradientTransform="translate(498.77 -88.61) rotate(161.47) scale(1 -1)" xlink:href="#linear-gradient4"/>
    <linearGradient id="linear-gradient11" x1="259.27" y1="349.11" x2="403.94" y2="349.11" gradientTransform="translate(101.29 -75.72) rotate(15.41)" xlink:href="#linear-gradient4"/>
    <linearGradient id="linear-gradient12" x1="-465.52" y1="426.25" x2="-320.85" y2="426.25" gradientTransform="translate(189.68 65.48) rotate(161.95) scale(1 -1)" xlink:href="#linear-gradient4"/>
    <linearGradient id="linear-gradient13" x1="511.86" y1="604.83" x2="511.86" y2="703.98" xlink:href="#linear-gradient8"/>
    <linearGradient id="linear-gradient14" x1="609.83" y1="906.18" x2="659.66" y2="992.48" gradientTransform="translate(-908.56 1379.87) rotate(-90) scale(1.21 1.16)" xlink:href="#linear-gradient3"/>
    <linearGradient id="linear-gradient15" x1="785.57" y1="489.93" x2="834.54" y2="574.74" gradientTransform="translate(1714.3 1168.09) rotate(-180) scale(1.07 1.01)" xlink:href="#linear-gradient3"/>
    <linearGradient id="linear-gradient16" x1="259.37" y1="349.69" x2="404.04" y2="349.69" gradientTransform="translate(35.38 -33.28) rotate(6.08)" xlink:href="#linear-gradient4"/>
    <linearGradient id="linear-gradient17" x1="-465.5" y1="426.85" x2="-320.83" y2="426.85" gradientTransform="translate(259.48 -33.28) rotate(173.92) scale(1 -1)" xlink:href="#linear-gradient4"/>
    <linearGradient id="linear-gradient18" x1="706.57" y1="201.09" x2="772.34" y2="315" gradientTransform="translate(1070.71 -449.01) rotate(90)" xlink:href="#linear-gradient3"/>
    <linearGradient id="linear-gradient19" x1="580.3" y1="210.19" x2="646.06" y2="324.1" gradientTransform="translate(-91.23 -78.56) scale(1.17 1.32)" xlink:href="#linear-gradient3"/>
    <linearGradient id="linear-gradient20" x1="704.05" y1="198.12" x2="769.82" y2="312.03" gradientTransform="translate(947.09 32.25) rotate(-180) scale(1 -1)" xlink:href="#linear-gradient3"/>
    <linearGradient id="linear-gradient21" x1="581.23" y1="207.35" x2="646.99" y2="321.26" gradientTransform="translate(745.97 989.02) rotate(-90) scale(1.17 -1.32)" xlink:href="#linear-gradient3"/>
    <linearGradient id="linear-gradient22" x1="537.37" y1="320.62" x2="913.24" y2="320.62" gradientUnits="userSpaceOnUse">
      <stop offset="0" stop-color="#9916ac"/>
      <stop offset="1" stop-color="#db088c"/>
    </linearGradient>
    <linearGradient id="linear-gradient23" x1="887.92" y1="320.62" x2="1263.8" y2="320.62" gradientTransform="translate(1374.64) rotate(-180) scale(1 -1)" xlink:href="#linear-gradient22"/>
    <linearGradient id="linear-gradient24" x1="875.74" y1="319.11" x2="694.13" y2="319.11" gradientUnits="userSpaceOnUse">
      <stop offset="0" stop-color="#9916ac"/>
      <stop offset=".4" stop-color="#9915ab" stop-opacity=".99"/>
      <stop offset=".55" stop-color="#9c15aa" stop-opacity=".95"/>
      <stop offset=".65" stop-color="#a014a8" stop-opacity=".88"/>
      <stop offset=".74" stop-color="#a712a5" stop-opacity=".78"/>
      <stop offset=".81" stop-color="#af11a0" stop-opacity=".65"/>
      <stop offset=".87" stop-color="#ba0e9b" stop-opacity=".5"/>
      <stop offset=".93" stop-color="#c60c95" stop-opacity=".31"/>
      <stop offset=".98" stop-color="#d4098f" stop-opacity=".1"/>
      <stop offset="1" stop-color="#db088c" stop-opacity="0"/>
    </linearGradient>
    <linearGradient id="linear-gradient25" x1="548.35" y1="152.92" x2="617.74" y2="32.74" gradientTransform="translate(966.78 -239.75) rotate(111.06) scale(1 1.19)" gradientUnits="userSpaceOnUse">
      <stop offset="0" stop-color="#fff" stop-opacity=".5"/>
      <stop offset=".29" stop-color="#f3b0da" stop-opacity=".34"/>
      <stop offset=".77" stop-color="#e137a2" stop-opacity=".1"/>
      <stop offset="1" stop-color="#db088c" stop-opacity="0"/>
    </linearGradient>
    <linearGradient id="linear-gradient26" x1="695.81" y1="288.56" x2="765.2" y2="168.39" gradientTransform="matrix(1,0,0,1,0,0)" xlink:href="#linear-gradient25"/>
    <linearGradient id="linear-gradient27" x1="462.3" y1="320.7" x2="280.68" y2="320.7" gradientTransform="translate(611.74) rotate(-180) scale(1 -1)" xlink:href="#linear-gradient24"/>
    <linearGradient id="linear-gradient28" x1="697.99" y1="476.1" x2="767.37" y2="355.93" gradientTransform="translate(-355.03 -239.75) rotate(68.94) scale(1 -1.19)" xlink:href="#linear-gradient25"/>
    <linearGradient id="linear-gradient29" x1="271.74" y1="284.28" x2="325.83" y2="190.59" gradientTransform="translate(-15.82)" xlink:href="#linear-gradient25"/>
    <linearGradient id="linear-gradient30" x1="753.09" y1="439.69" x2="798.93" y2="360.28" gradientTransform="translate(951.46 -239.75) rotate(111.06) scale(1 1.19)" xlink:href="#linear-gradient25"/>
  </defs>
  <g id="base-orb">
    <circle id="theme-color-bg" class="st24" cx="541.9" cy="552.45" r="423.07"/>
    <circle id="outer-circle" class="st4" cx="511.9" cy="512.45" r="408.5"/>
    <circle id="bg-gradient" class="st44" cx="511.9" cy="512.45" r="356.09"/>
    <circle id="tangerine-shadow" class="st13" cx="510.17" cy="514.43" r="374.7"/>
    <path id="top-inner-shadow" class="st33" d="M189.4,775.95c-38.36-62.24-60.5-135.55-60.5-214.03,0-225.61,182.89-408.5,408.5-408.5,123.99,0,235.08,55.25,310,142.47-71.92-116.68-200.87-194.47-348-194.47-225.61,0-408.5,182.89-408.5,408.5,0,101.61,37.11,194.56,98.5,266.03Z"/>
    <ellipse id="top-left-highlight" class="st36" cx="354.46" cy="288.18" rx="197.37" ry="110.78" transform="translate(-101.77 264.77) rotate(-36.17)"/>
  </g>
  <g id="surprise" class="st25">
    <g id="mouth">
      <ellipse id="mouth-bg" class="st22" cx="512" cy="708" rx="96.08" ry="127"/>
      <path id="tongue" class="st11" d="M472.7,794.89s6.61,14.83,39.08,14.83,41.01-14.83,41.01-14.83c0,0-.48-17.2-40.04-17.2s-40.04,17.2-40.04,17.2Z"/>
      <path id="teeth" class="st10" d="M580.08,648h-136.16s17.35-48,68.08-48,68.08,48,68.08,48Z"/>
    </g>
    <g id="left-eye">
      <circle id="eye-outline" class="st5" cx="364" cy="461" r="106"/>
      <circle id="pupil" class="st22" cx="404" cy="471" r="48"/>
    </g>
    <g id="right-eye">
      <circle id="eye-outline1" data-name="eye-outline" class="st5" cx="664" cy="461" r="106"/>
      <circle id="pupil1" data-name="pupil" class="st22" cx="624" cy="471" r="48"/>
    </g>
    <path id="left-brow" class="st31" d="M243.67,353.12c-5.31-3.42-1.59-17.92-.62-21.73,11.52-45.01,70.32-84.94,101.1-99.42,13.17-6.2,42.34-17.94,53.99-13.74,19.42,7,17.62,35.77,13.31,43.13-2.85,4.86-31.74-11.18-84.66,20.53-45.39,27.2-80.15,73.15-83.12,71.24Z"/>
    <path id="right-brow" class="st34" d="M794.33,353.12c5.31-3.42,1.59-17.92.62-21.73-11.52-45.01-70.32-84.94-101.1-99.42-13.17-6.2-42.34-17.94-53.99-13.74-19.42,7-17.62,35.77-13.31,43.13,2.85,4.86,31.74-11.18,84.66,20.53,45.39,27.2,80.15,73.15,83.12,71.24Z"/>
  </g>
  <g id="fear" class="st25">
    <g id="left-eye1" data-name="left-eye">
      <circle id="eye-outline2" data-name="eye-outline" class="st5" cx="364" cy="461" r="106"/>
      <circle id="pupil2" data-name="pupil" class="st22" cx="394" cy="461" r="48"/>
    </g>
    <g id="right-eye1" data-name="right-eye">
      <circle id="eye-outline3" data-name="eye-outline" class="st5" cx="664" cy="461" r="106"/>
      <circle id="pupil3" data-name="pupil" class="st22" cx="634" cy="461" r="48"/>
    </g>
    <g id="mouth1" data-name="mouth">
      <path id="mouth-bg1" data-name="mouth-bg" class="st22" d="M682.08,743c-12.04,17.98-21.04-10.87-169.56-10.87s-156.53,25.4-166.6,7.87c-20.13-35.06,52.8-149,166.08-149s194.16,116.05,170.08,152Z"/>
      <path id="tongue1" data-name="tongue" class="st11" d="M428.91,710.6s31.16-5.54,85.55-5.54,79.9,5.54,79.9,5.54c0,0-17.33-38.44-82.72-38.44s-82.72,38.44-82.72,38.44Z"/>
    </g>
    <path id="left-brow1" data-name="left-brow" class="st41" d="M254.65,325.46c1.13,4.67,12.75,6.03,15.81,6.39,36.08,4.23,80.74-26.18,99.39-43.86,7.98-7.57,24.2-24.86,24.15-34.21-.09-15.58-21.71-22.2-28.24-21.18-4.32.67-.04,25.39-37.12,53.92-31.81,24.47-74.63,36.33-74,38.94Z"/>
    <path id="right-brow1" data-name="right-brow" class="st29" d="M774.28,324.53c-1.13,4.67-12.75,6.03-15.81,6.39-36.08,4.23-80.74-26.18-99.39-43.86-7.98-7.57-24.2-24.86-24.15-34.21.09-15.58,21.71-22.2,28.24-21.18,4.32.67.04,25.39,37.12,53.92,31.81,24.47,74.63,36.33,74,38.94Z"/>
  </g>
  <g id="calm" class="st25">
    <path id="left-eye2" data-name="left-eye" class="st22" d="M274.45,469.4c-3.27.56-13.03,10.14-7.15,22.47,10.65,22.33,47.49,53.04,89.1,51.06,78.41-3.72,102.22-61.25,87.58-73.93-18.78-16.27-29.63,30.47-84.43,31.72-59.91,1.36-62.81-35.12-85.11-31.32Z"/>
    <path id="right-eye2" data-name="right-eye" class="st22" d="M753.83,469.4c3.27.56,13.03,10.14,7.15,22.47-10.65,22.33-47.49,53.04-89.1,51.06-78.41-3.72-102.22-61.25-87.58-73.93,18.78-16.27,29.63,30.47,84.43,31.72,59.91,1.36,62.81-35.12,85.11-31.32Z"/>
    <path id="mouth2" data-name="mouth" class="st16" d="M415.78,653.23s41.48,34.72,105.05,32.43,93.81-33.81,96.26-34.98c5.23-2.49,13.33-1.93,16.6-.26,3.84,1.97,7.55,16.31-3.32,29.36-20.2,24.25-69.79,52.92-114.72,52.09-69.11-1.28-113.02-47.49-113.02-47.49,0,0-18.64-17.11-10.98-30.13s24.14-1.02,24.14-1.02Z"/>
    <path id="left-brow2" data-name="left-brow" class="st14" d="M251.19,380.55c26.32-38.28,71.17-53.61,105.06-56.6,14.5-1.28,45.93-2.25,55.42,5.71,4.45,3.73,7.62,31.31-3.31,27.91-65.76-20.43-130.38,26.81-147.97,35.23-6.57,3.15-11.42-9.01-9.19-12.26Z"/>
    <path id="right-brow2" data-name="right-brow" class="st6" d="M772.52,380.55c-26.32-38.28-71.17-53.61-105.06-56.6-14.5-1.28-45.93-2.25-55.42,5.71-4.45,3.73-7.62,31.31,3.31,27.91,65.76-20.43,130.38,26.81,147.97,35.23,6.57,3.15,11.42-9.01,9.19-12.26Z"/>
  </g>
  <g id="joy" class="st25">
    <path id="left-eye3" data-name="left-eye" class="st22" d="M274.45,475.19c-3.27-.56-13.03-10.14-7.15-22.47,10.65-22.33,47.49-53.04,89.1-51.06,78.41,3.72,102.22,61.25,87.58,73.93-18.78,16.27-29.63-30.47-84.43-31.72-59.91-1.36-62.81,35.12-85.11,31.32Z"/>
    <path id="left-eye4" data-name="left-eye" class="st22" d="M753.83,475.19c3.27-.56,13.03-10.14,7.15-22.47-10.65-22.33-47.49-53.04-89.1-51.06-78.41,3.72-102.22,61.25-87.58,73.93,18.78,16.27,29.63-30.47,84.43-31.72,59.91-1.36,62.81,35.12,85.11,31.32Z"/>
    <path id="left-brow3" data-name="left-brow" class="st17" d="M244.62,380.04c28.95-53.38,73.7-72.22,107.37-77.04,14.41-2.07,47-2.93,54.22,6.66s4.7,19.19-4.05,24.88c-22.87,14.87-16.39-15.11-78.87,9.28-36.35,14.19-59.69,46.34-63.32,48.33-6.39,3.5-17.22-8.64-15.35-12.11Z"/>
    <path id="right-brow3" data-name="right-brow" class="st27" d="M780.47,376.17c-31.37-51.99-76.94-68.76-110.8-72.03-14.49-1.4-47.08-.77-53.85,9.14-6.77,9.91-3.81,19.39,5.19,24.67,23.53,13.8,15.67-15.85,79.22,5.65,36.96,12.51,61.75,43.55,65.47,45.37,6.54,3.2,16.81-9.42,14.77-12.8Z"/>
    <path id="mouth3" data-name="mouth" class="st43" d="M386.26,610.8s53.22,41.14,134.79,38.41,120.36-40.06,123.5-41.44c6.72-2.95,17.1-2.28,21.29-.3,4.93,2.33,9.69,19.33-4.26,34.78-25.92,28.72-89.55,62.69-147.2,61.7-88.67-1.51-145.01-56.26-145.01-56.26,0,0-23.91-20.27-14.09-35.69s30.97-1.21,30.97-1.21Z"/>
  </g>
  <g id="Layer_6" class="st25">
    <g id="mouth4" data-name="mouth">
      <path id="mouth-outline" d="M511.9,576.17c204.32,0,217.06-78.7,234.99-10.81,12.73,48.21-54.81,228.61-231.1,228.72-183.74.11-244.34-172.91-236.94-226.49,9.61-69.56,42.89,8.57,233.05,8.57Z"/>
      <path id="tongue2" data-name="tongue" class="st11" d="M430.77,742.3s27.46,24.51,81.13,24.51,84.32-24.51,84.32-24.51c0,0-17.33-28.44-82.72-28.44s-82.72,28.44-82.72,28.44Z"/>
      <path id="teeth1" data-name="teeth" class="st10" d="M312.04,576.17s90.56,32.85,201.28,32.85,201.55-32.85,201.55-32.85l-5.55,34.99s-53.96,49.44-197.28,49.44-193.87-49.44-193.87-49.44l-6.13-34.99Z"/>
    </g>
    <g id="left-tear" class="st20">
      <path id="tear-bg" class="st35" d="M274.49,475.79s3.55,96.21-18.45,156.64c-8.58,23.56-29.87,60.29-63.66,64.34-61.11,7.32-74.98-45.21-77.28-54.81-8.87-37.07,22.88-81.62,44.94-102.47,44.34-41.9,114.45-63.7,114.45-63.7Z"/>
      <ellipse id="highlights" class="st32" cx="195.34" cy="613.58" rx="59.73" ry="54.12" transform="translate(-414.17 405.88) rotate(-53.52)"/>
      <path id="tear-shadow" class="st0" d="M256.89,628.17c-5.74,20.21-8.61,30.31-16.85,40.85-12.43,15.9-28.3,22.23-34.21,24.51-8.69,3.34-25.56,9.84-45.96,3.93-21.65-6.27-33.02-22.39-36.26-27.42-11.32-17.58-10.55-35.21-10.04-46.98.22-4.99,1.61-28.27,17.18-52.6,17.34-27.08,53.03-43.64,63.38-48-1.84,3.13-56.23,59.23-38.33,108,5.88,16.03,32.03,30.36,57.68,22.72,24-7.15,45.26-48.89,47.18-48,2.43,1.12-1.18,13.85-3.77,22.98Z"/>
      <path id="tear-inner" class="st10" d="M176.21,602.38c-4.85,1.02-8.76-1.27-9.19-1.53-3.86-2.34-5.16-6.06-5.62-7.43-1.49-4.47-.36-8.31,1.02-12.99.51-1.74,2.25-7.23,6.64-13.28,3.35-4.62,6.61-7.31,10.11-10.21,4.16-3.44,6.49-5.32,10.31-6.38,2.18-.61,5.68-1.58,9.45,0,4.11,1.72,5.9,5.39,6.64,6.89.15.31,2.26,6.67.01,13.4-2.96,8.84-10.8,18.85-14.05,22.09-6.42,6.38-14.23,9.22-15.32,9.45Z"/>
      <path id="tear-outline" class="st42" d="M181.23,711.45c-46.82,0-71.83-33.17-79.74-66.24-10.73-44.85,25.71-93.96,48.94-115.9,46.17-43.62,116.92-65.97,119.9-66.9l17.47-5.44.68,18.29c.15,4.04,3.39,99.66-19.28,161.94-11.86,32.58-37.83,68.98-75.15,73.45-4.44.53-8.72.79-12.82.79ZM260.67,495.7c-22.9,9.06-62.87,27.38-91.01,53.97-20.4,19.28-48.14,58.9-40.94,89.04,4.48,18.73,18.49,49.38,62,44.16,24.75-2.96,43.57-31.6,52.17-55.23,15.02-41.25,17.55-101.37,17.78-131.94Z"/>
    </g>
    <g id="right-tear" class="st20">
      <path id="tear-bg1" data-name="tear-bg" class="st35" d="M757.05,478.19s-3.55,96.21,18.45,156.64c8.58,23.56,29.87,60.29,63.66,64.34,61.11,7.32,74.98-45.21,77.28-54.81,8.87-37.07-22.88-81.62-44.94-102.47-44.34-41.9-114.45-63.7-114.45-63.7Z"/>
      <ellipse id="highlights1" data-name="highlights" class="st38" cx="849.49" cy="627.99" rx="47.04" ry="51.22" transform="translate(-75.49 117.68) rotate(-7.59)"/>
      <path id="tear-shadow1" data-name="tear-shadow" class="st0" d="M774.64,630.58c5.74,20.21,8.61,30.31,16.85,40.85,12.43,15.9,28.3,22.23,34.21,24.51,8.69,3.34,25.56,9.84,45.96,3.93,21.65-6.27,33.02-22.39,36.26-27.42,11.32-17.58,10.55-35.21,10.04-46.98-.22-4.99-1.61-28.27-17.18-52.6-17.34-27.08-53.03-43.64-63.38-48,1.84,3.13,56.23,59.23,38.33,108-5.88,16.03-32.03,30.36-57.68,22.72-24-7.15-45.26-48.89-47.18-48-2.43,1.12,1.18,13.85,3.77,22.98Z"/>
      <path id="tear-inner1" data-name="tear-inner" class="st10" d="M827.73,576.14c-2.63-3.19-6.34-3.79-6.75-3.85-3.7-.54-6.44,1.12-7.44,1.75-3.25,2.04-4.47,5.06-5.96,8.74-.55,1.36-2.22,5.75-2.45,11.86-.18,4.68.56,8.08,1.37,11.75.95,4.35,1.51,6.76,3.44,9.44,1.1,1.52,2.89,3.98,6.14,4.95,3.55,1.06,6.58-.31,7.83-.87.25-.11,4.87-3.02,6.84-8.46,2.58-7.13,2.59-17.57,2.13-21.31-.92-7.39-4.54-13.28-5.14-14Z"/>
      <path id="tear-outline1" data-name="tear-outline" class="st42" d="M837.49,713.07c-37.32-4.47-63.29-40.87-75.15-73.45-22.67-62.29-19.43-157.9-19.28-161.94l.68-18.29,17.47,5.44c2.99.93,73.74,23.27,119.9,66.9,23.22,21.94,59.66,71.05,48.94,115.9-7.91,33.07-32.91,66.24-79.74,66.24-4.1,0-8.38-.25-12.82-.79ZM788.65,630.04c8.6,23.63,27.42,52.26,52.17,55.23,43.5,5.21,57.52-25.43,62-44.16,7.21-30.13-20.53-69.76-40.94-89.04-28.14-26.59-68.11-44.9-91.01-53.97.23,30.57,2.77,90.69,17.78,131.94Z"/>
    </g>
    <path id="left-eye5" data-name="left-eye" class="st22" d="M274.49,475.79c-3.27-.56-13.03-10.14-7.15-22.47,10.65-22.33,47.49-53.04,89.1-51.06,78.41,3.72,102.22,61.25,87.58,73.93-18.78,16.27-29.63-30.47-84.43-31.72-59.91-1.36-62.81,35.12-85.11,31.32Z"/>
    <path id="left-eye6" data-name="left-eye" class="st22" d="M753.87,475.79c3.27-.56,13.03-10.14,7.15-22.47-10.65-22.33-47.49-53.04-89.1-51.06-78.41,3.72-102.22,61.25-87.58,73.93,18.78,16.27,29.63-30.47,84.43-31.72,59.91-1.36,62.81,35.12,85.11,31.32Z"/>
    <path id="left-brow4" data-name="left-brow" class="st18" d="M250.81,393.79c19.91-57.37,61-83.22,93.45-93.45,13.88-4.38,45.9-10.52,54.58-2.23s7.75,18.18.04,25.21c-20.15,18.38-18.62-12.26-76.32,21.96-33.56,19.9-51.37,55.41-54.64,57.97-5.74,4.49-18.4-5.73-17.11-9.46Z"/>
    <path id="right-brow4" data-name="right-brow" class="st40" d="M773.02,393.79c-19.91-57.37-61-83.22-93.45-93.45-13.88-4.38-45.9-10.52-54.58-2.23s-7.75,18.18-.04,25.21c20.15,18.38,18.62-12.26,76.32,21.96,33.56,19.9,51.37,55.41,54.64,57.97,5.74,4.49,18.4-5.73,17.11-9.46Z"/>
  </g>
  <g id="love" class="st25">
    <g id="mouth5" data-name="mouth">
      <path id="mouth-outline1" data-name="mouth-outline" d="M511.96,575.79c204.32,0,217.06-78.7,234.99-10.81,12.73,48.21-54.81,228.61-231.1,228.72-183.74.11-244.34-172.91-236.94-226.49,9.61-69.56,42.89,8.57,233.05,8.57Z"/>
      <path id="tongue3" data-name="tongue" class="st11" d="M430.83,741.91s27.46,24.51,81.13,24.51,84.32-24.51,84.32-24.51c0,0-17.33-28.44-82.72-28.44s-82.72,28.44-82.72,28.44Z"/>
      <path id="teeth2" data-name="teeth" class="st10" d="M312.11,556.79s90.56,32.85,201.28,32.85,201.55-32.85,201.55-32.85l-5.55,53.99s-53.96,49.44-197.28,49.44-193.87-49.44-193.87-49.44l-6.13-53.99Z"/>
    </g>
    <g id="right-heart">
      <path class="st1" d="M718.89,271.58c-6.08.11-8.66-134.28-117.74-112.41-50.01,10.03-88.34,84.11-52.59,176.22,29.51,76.02,131.83,184.47,131.83,184.47,0,0,136.79-66.39,197.13-146.11,46.93-62,27.08-137.9-7.1-159.29-92.86-58.11-145.45,57.02-151.53,57.12Z"/>
      <path class="st39" d="M790.93,240.07s63.99,26.86,16.32,104.46c-25.16,40.96-108.85,134.79-108.85,134.79,0,0,109.25-58.58,153.14-127.97,31.52-49.83,9.07-93.48-2.11-104.15-35.61-34-58.5-7.14-58.5-7.14Z"/>
      <path class="st39" d="M572.31,243.03s1.18-35.25,34.44-46.79c33.26-11.54,42.15,4.72,49.2,15.99,7.05,11.27,8.74,45.2,8.74,45.2,0,0-17.49-36.03-45.82-37.39-28.33-1.37-46.56,22.99-46.56,22.99Z"/>
      <ellipse class="st15" cx="812.66" cy="290.45" rx="67.8" ry="59.18" transform="translate(-13.29 540.61) rotate(-36.52)"/>
      <ellipse class="st26" cx="625.74" cy="274.09" rx="69.2" ry="89.5" transform="translate(-13.58 33.37) rotate(-3.02)"/>
    </g>
    <g id="left-heart">
      <path class="st1" d="M305.23,271.58c6.08.11,8.66-134.28,117.74-112.41,50.01,10.03,88.34,84.11,52.59,176.22-29.51,76.02-131.83,184.47-131.83,184.47,0,0-136.79-66.39-197.13-146.11-46.93-62-27.08-137.9,7.1-159.29,92.86-58.11,145.45,57.02,151.53,57.12Z"/>
      <path class="st39" d="M363.71,203.82s70.4,7.74,46.52,101.36c-12.61,49.42-66.94,170.6-66.94,170.6,0,0,89.63-93.12,112.23-177.23,16.22-60.39-18.49-97.96-32.54-105.4-44.75-23.7-59.26,10.66-59.26,10.66Z"/>
      <path class="st39" d="M247.98,266.9s-12.71-32.9-47.92-32.85-38.25,18.33-41.2,31.29c-2.95,12.96,6.62,45.56,6.62,45.56,0,0,4.66-39.77,30.96-50.39,26.31-10.62,51.53,6.38,51.53,6.38Z"/>
      <ellipse class="st30" cx="210.15" cy="287.32" rx="59.18" ry="67.8" transform="translate(-145.82 285.24) rotate(-53.48)"/>
      <ellipse class="st7" cx="397.07" cy="270.96" rx="89.5" ry="69.2" transform="translate(105.55 653.19) rotate(-86.98)"/>
    </g>
  </g>
  <g id="excited">
    <g id="mouth6" data-name="mouth">
      <path id="mouth-outline2" data-name="mouth-outline" d="M746.89,575.36s-54.81,180.61-231.1,180.72c-183.74.11-236.94-178.49-236.94-178.49l468.04-2.23Z"/>
      <path id="tongue4" data-name="tongue" class="st11" d="M430.77,712.3s27.46,16.51,81.13,16.51,84.32-16.51,84.32-16.51c0,0-17.33-36.44-82.72-36.44s-82.72,36.44-82.72,36.44Z"/>
      <path id="teeth3" data-name="teeth" class="st10" d="M312.04,591.17l402.83-1-5.55,32.99s-53.96,22.44-197.28,22.44-193.87-22.44-193.87-22.44l-6.13-31.99Z"/>
    </g>
    <g id="eyes">
      <path class="st3" d="M558,454.55c-11.36-20.18,50.44-100.71,45.06-137.36-5.38-36.65-74.04-97.02-64.85-110.3s122.04,13.79,141.96,5.62c19.91-8.17,61.23-88.56,81.7-88.56s31.04,99.55,45.14,121.88c14.1,22.33,113.93,27.15,105.76,57.77-8.17,30.63-88.04,49.75-94.21,83.54-6.18,33.79,11.74,118.47-7.15,129.19-18.89,10.72-74.55-72-118.47-77.11-74.11-7.15-123.58,35.5-134.94,15.32Z"/>
      <path class="st2" d="M466.08,454.55c11.36-20.18-50.44-100.71-45.06-137.36,5.38-36.65,74.04-97.02,64.85-110.3-9.19-13.28-122.04,13.79-141.96,5.62-19.91-8.17-61.23-88.56-81.7-88.56-20.47,0-31.04,99.55-45.14,121.88s-113.93,27.15-105.76,57.77c8.17,30.63,88.04,49.75,94.21,83.54s-11.74,118.47,7.15,129.19c18.89,10.72,74.55-72,118.47-77.11,74.11-7.15,123.58,35.5,134.94,15.32Z"/>
      <g>
        <path class="st19" d="M694.13,409.49s18.28-2.22,38.64,12.08c20.36,14.3,57.78,52.39,62.3,52.39s-11.16-89.29,7.22-117.88c11.98-18.63,73.46-45.99,73.46-52.46s-82.19-23.86-89.36-33.14c-7.18-9.28-28.34-106.21-28.34-106.21l-63.91,245.23Z"/>
        <polygon class="st37" points="714.87 319.46 572.89 225.91 666.92 234.77 714.87 319.46"/>
        <polygon class="st8" points="694.13 409.49 591.32 426.47 721.02 323.58 694.13 409.49"/>
        <polygon class="st12" points="758.04 164.26 721.87 303.61 696.42 227.33 758.04 164.26"/>
      </g>
      <g>
        <path class="st9" d="M331.06,411.08s-18.28-2.22-38.64,12.08c-20.36,14.3-57.78,52.39-62.3,52.39s11.16-89.29-7.22-117.88c-11.98-18.63-73.46-45.99-73.46-52.46s82.19-23.86,89.36-33.14,28.34-106.21,28.34-106.21l63.91,245.23Z"/>
        <polygon class="st28" points="310.32 321.06 452.3 227.51 358.27 236.36 310.32 321.06"/>
        <polygon class="st8" points="331.06 411.08 433.87 428.06 304.17 325.18 331.06 411.08"/>
        <polygon class="st23" points="267.15 165.85 298.78 309.02 244.4 257.81 267.15 165.85"/>
      </g>
      <polygon class="st21" points="304.17 325.18 149.45 305.2 229.45 275.53 304.17 325.18"/>
    </g>
  </g>
</svg>