# Blender 4.4.0
# www.blender.org
mtllib _1202203213_texture.mtl
o _1202203213_texture
v 0.796193 0.807698 0.061299
v 0.734451 0.461966 0.319766
v 1.000000 0.578099 0.095085
v 0.462754 0.191040 0.378061
v 0.552463 -0.060378 0.303171
v 0.583677 -0.459101 0.050487
v -0.012828 -0.698927 0.254924
v -0.580169 -0.476914 -0.050742
v 0.211270 -0.222545 0.363225
v -0.031527 -0.415342 0.352152
v -0.259560 -0.228489 0.326167
v -0.560975 -0.064020 0.237922
v -0.492264 0.197536 0.292258
v -0.846387 -0.157176 -0.077617
v -0.990467 0.097966 -0.078756
v -0.468877 0.405740 0.297464
v -0.745641 0.462941 0.204350
v -0.995046 0.568743 -0.090698
v -1.000000 0.137786 -0.078768
v -0.789147 0.820565 -0.066492
v -0.009551 0.524940 0.259783
v -0.435015 0.640689 0.243616
v 0.416232 0.636195 0.319849
v 0.445811 0.410072 0.377524
v 0.449289 0.897351 0.033208
v 0.013039 0.709489 -0.004135
v 0.768604 0.470601 -0.184717
v 0.978367 0.102026 0.088752
v 0.586004 -0.076064 -0.208418
v 0.521688 0.194225 -0.279036
v 0.849826 -0.164000 0.074865
v 0.204525 -0.793104 0.019351
v 0.031632 -0.696177 -0.252568
v 0.004426 -0.912484 0.000466
v -0.159417 -0.818451 -0.013575
v -0.175144 -0.793302 0.000921
v 0.267165 -0.236064 -0.301527
v 0.032851 -0.403352 -0.360842
v -0.198522 -0.233790 -0.358971
v -0.518055 -0.070619 -0.326386
v -0.450209 0.199788 -0.378061
v -0.713435 0.453903 -0.333574
v -0.426404 0.403438 -0.372174
v -0.381074 0.643376 -0.311227
v 0.019866 0.527832 -0.256065
v -0.445931 0.912484 -0.037936
v -0.183651 0.838038 -0.014157
v 0.486265 0.403136 -0.295546
v 0.465780 0.632012 -0.242721
v 0.179224 0.826072 0.016348
vn 0.8990 0.1361 0.4163
vn 0.4506 -0.1576 0.8787
vn 0.8556 -0.2944 -0.4258
vn 0.8302 0.5517 0.0802
vn 0.3249 -0.1142 0.9388
vn 0.4979 -0.3807 0.7792
vn 0.1403 -0.9837 0.1121
vn 0.0424 -0.9983 0.0406
vn 0.3139 -0.2961 0.9021
vn 0.0044 -0.9974 -0.0721
vn 0.7038 -0.6961 0.1420
vn -0.1407 -0.9744 0.1753
vn 0.0066 -0.9955 0.0947
vn -0.0058 -0.0317 0.9995
vn -0.0394 0.0398 0.9984
vn -0.4892 -0.3945 0.7778
vn -0.6725 -0.3004 0.6764
vn -0.1245 0.0082 0.9922
vn -0.2880 -0.8591 0.4231
vn -0.3331 -0.8368 -0.4346
vn -0.1991 0.4893 0.8491
vn -0.5998 -0.1254 0.7902
vn -0.8090 -0.1208 0.5752
vn -0.7531 0.6047 -0.2594
vn 0.2616 0.8546 -0.4485
vn -0.0811 0.3074 0.9481
vn 0.1810 0.7022 0.6885
vn 0.6910 0.7096 0.1379
vn -0.2818 0.9401 -0.1921
vn -0.2978 0.7059 0.6427
vn -0.2374 0.1323 0.9623
vn -0.6122 0.7244 0.3169
vn 0.3043 0.9325 -0.1946
vn 0.3087 0.6905 0.6542
vn 0.6008 -0.1442 -0.7863
vn 0.6497 -0.3458 -0.6770
vn 0.4400 -0.1066 -0.8916
vn -0.2251 -0.1412 -0.9641
vn -0.7345 -0.1586 -0.6598
vn 0.2392 -0.1190 -0.9636
vn 0.3052 0.0198 -0.9521
vn -0.3433 -0.4055 -0.8471
vn -0.5451 -0.2697 -0.7938
vn 0.0545 0.0170 -0.9984
vn -0.4917 -0.1433 -0.8589
vn -0.0323 0.4932 -0.8693
vn 0.2835 0.7134 -0.6408
vn 0.0801 0.2966 -0.9516
vn -0.0718 0.1361 -0.9881
vn -0.1682 0.6960 -0.6981
vt 0.214042 0.000100
vt 0.151227 0.069333
vt 0.131591 0.000100
vt 0.040905 0.089437
vt 0.144420 0.170410
vt 0.079984 0.198860
vt 0.011087 0.162602
vt 0.000100 0.268390
vt 0.054240 0.425585
vt 0.001554 0.403614
vt 0.013679 0.464874
vt 0.061707 0.480791
vt 0.204957 0.503834
vt 0.107091 0.294261
vt 0.112041 0.376932
vt 0.190140 0.389214
vt 0.278016 0.421145
vt 0.316770 0.359892
vt 0.316264 0.499985
vt 0.392564 0.483011
vt 0.353912 0.318021
vt 0.416186 0.364298
vt 0.487202 0.400140
vt 0.402172 0.477794
vt 0.500275 0.314006
vt 0.296875 0.206491
vt 0.395664 0.270372
vt 0.457118 0.229134
vt 0.395335 0.190057
vt 0.242304 0.101252
vt 0.190980 0.134696
vt 0.293942 0.053298
vt 0.328000 0.119792
vt 0.334697 0.173867
vt 0.786138 0.000100
vt 0.868644 0.000100
vt 0.840773 0.070700
vt 0.959167 0.089479
vt 0.916433 0.204856
vt 0.849304 0.170758
vt 0.988924 0.162658
vt 0.999900 0.268447
vt 0.998490 0.403659
vt 0.940573 0.426044
vt 0.986376 0.464913
vt 0.938422 0.480809
vt 0.931096 0.479136
vt 0.795374 0.503792
vt 0.889225 0.298340
vt 0.879375 0.375727
vt 0.805010 0.391172
vt 0.717315 0.424568
vt 0.674014 0.363934
vt 0.684186 0.499904
vt 0.608115 0.482875
vt 0.578539 0.369723
vt 0.637951 0.322759
vt 0.598529 0.477652
vt 0.513475 0.399994
vt 0.500475 0.313846
vt 0.600138 0.269738
vt 0.695369 0.209970
vt 0.543543 0.229000
vt 0.605241 0.189949
vt 0.801086 0.140808
vt 0.753631 0.102938
vt 0.706384 0.053257
vt 0.672457 0.119719
vt 0.665713 0.173800
s 1
usemtl Material
f 1/1/1 2/2/2 3/3/3
f 2/2/2 28/4/4 3/3/3
f 2/2/2 4/5/5 5/6/6
f 2/2/2 5/6/6 28/4/4
f 5/6/6 31/7/7 28/4/4
f 5/6/6 6/8/8 31/7/7
f 6/8/8 7/9/9 32/10/10
f 7/9/9 34/11/11 32/10/10
f 7/9/9 35/12/12 34/11/11
f 7/9/9 8/13/13 35/12/12
f 5/6/6 9/14/14 7/9/9
f 5/6/6 7/9/9 6/8/8
f 9/14/14 10/15/15 7/9/9
f 10/15/15 11/16/16 7/9/9
f 11/16/16 12/17/17 8/13/13
f 11/16/16 8/13/13 7/9/9
f 12/17/17 11/16/16 13/18/18
f 12/17/17 14/19/19 8/13/13
f 12/17/17 15/20/20 14/19/19
f 13/18/18 16/21/21 17/22/22
f 17/22/22 15/20/20 12/17/17
f 17/22/22 12/17/17 13/18/18
f 17/22/22 18/23/23 19/24/24
f 17/22/22 19/24/24 15/20/20
f 18/23/23 17/22/22 20/25/25
f 16/21/21 21/26/26 22/27/27
f 46/28/28 22/27/27 47/29/29
f 22/27/27 46/28/28 20/25/25
f 20/25/25 17/22/22 16/21/21
f 20/25/25 16/21/21 22/27/27
f 1/1/1 23/30/30 24/31/31
f 1/1/1 24/31/31 2/2/2
f 24/31/31 4/5/5 2/2/2
f 4/5/5 9/14/14 5/6/6
f 24/31/31 21/26/26 16/21/21
f 24/31/31 16/21/21 13/18/18
f 24/31/31 13/18/18 11/16/16
f 24/31/31 11/16/16 10/15/15
f 24/31/31 10/15/15 9/14/14
f 24/31/31 9/14/14 4/5/5
f 25/32/32 23/30/30 1/1/1
f 50/33/33 23/30/30 25/32/32
f 23/30/30 21/26/26 24/31/31
f 26/34/34 47/29/29 22/27/27
f 26/34/34 22/27/27 21/26/26
f 26/34/34 21/26/26 23/30/30
f 26/34/34 23/30/30 50/33/33
f 1/35/1 3/36/3 27/37/35
f 27/37/35 3/36/3 28/38/4
f 27/37/35 28/38/4 29/39/36
f 27/37/35 29/39/36 30/40/37
f 29/39/36 28/38/4 31/41/7
f 29/39/36 31/41/7 6/42/8
f 6/42/8 32/43/10 33/44/38
f 33/44/38 32/43/10 34/45/11
f 33/44/38 34/45/11 35/46/12
f 33/44/38 35/46/12 36/47/39
f 33/44/38 36/47/39 8/48/13
f 29/39/36 6/42/8 33/44/38
f 29/39/36 33/44/38 37/49/40
f 37/49/40 33/44/38 38/50/41
f 38/50/41 33/44/38 39/51/42
f 39/51/42 33/44/38 8/48/13
f 39/51/42 8/48/13 40/52/43
f 40/52/43 41/53/44 39/51/42
f 40/52/43 8/48/13 14/54/19
f 40/52/43 14/54/19 15/55/20
f 41/53/44 42/56/45 43/57/46
f 42/56/45 41/53/44 40/52/43
f 42/56/45 40/52/43 15/55/20
f 42/56/45 15/55/20 19/58/24
f 42/56/45 19/58/24 18/59/23
f 18/59/23 20/60/25 42/56/45
f 43/57/46 44/61/47 45/62/48
f 46/63/28 47/64/29 44/61/47
f 44/61/47 20/60/25 46/63/28
f 20/60/25 44/61/47 43/57/46
f 20/60/25 43/57/46 42/56/45
f 1/35/1 27/37/35 48/65/49
f 1/35/1 48/65/49 49/66/50
f 48/65/49 27/37/35 30/40/37
f 30/40/37 29/39/36 37/49/40
f 48/65/49 30/40/37 37/49/40
f 48/65/49 37/49/40 38/50/41
f 48/65/49 38/50/41 39/51/42
f 48/65/49 39/51/42 41/53/44
f 48/65/49 41/53/44 43/57/46
f 48/65/49 43/57/46 45/62/48
f 25/67/32 1/35/1 49/66/50
f 50/68/33 25/67/32 49/66/50
f 49/66/50 48/65/49 45/62/48
f 26/69/34 50/68/33 49/66/50
f 26/69/34 49/66/50 45/62/48
f 26/69/34 45/62/48 44/61/47
f 26/69/34 44/61/47 47/64/29
