<?xml version="1.0" encoding="UTF-8"?>
<svg id="music_note" data-name="music note" xmlns="http://www.w3.org/2000/svg" viewBox="0 0 325.58 496.84">
  <path id="note" d="M318.05,177.85c-17.87-52.09-44.77-76.15-72-102.02S203.84,1.85,189.37.15s-15.7,11.49-15.7,11.49c0,0-.82,187.94-1.42,282.81-.09,14.92-.18,27.54-.26,36.77-.09,10.56-.29,14.72-5.83,18-5.55,3.28-19.05,1.08-35.1-2.72-3.09-.73-52.49-8.3-95.38,26.09-42.89,34.38-41.02,77.94-25.87,97.02,29.45,37.11,89.31,25.98,94.11,24.7,19.94-5.3,62.39-23.11,84.81-54.19,10.16-14.09,12.71-24.82,13.09-29.4.89-10.85,1.25-20.05,1.2-27.87v-253.52.02s-.22-3.37,1.25-5.62c2.07-3.17,6.56-5.63,11.64-6.68,8.68-1.79,43.09,1.94,69.47,64.4s.02,81.68,19.62,87.09c13.09,1.49,30.96-38.6,13.09-90.68Z"/>
</svg>