<svg version="1.2" xmlns="http://www.w3.org/2000/svg" viewBox="0 0 920 316" width="920" height="316"><style>.a{fill:#f2f1f1}</style><path class="a" d="m305.5 12.7c1.7 0.3 4.1 1.2 5.5 1.9 1.4 0.7 3.7 2.5 5.2 4.1 1.5 1.5 3.4 4.5 4.2 6.6 0.9 2 1.6 5.2 1.6 7 0 1.7-0.9 5-1.8 7.2-1 2.2-2.9 5.1-4.3 6.4-1.3 1.3-4.2 3.2-6.4 4.2-2.2 1-5.3 1.9-7 1.9-1.7 0-5.3-1.1-8-2.5-3.1-1.6-6.1-4.1-7.9-6.8-1.9-2.6-3.1-5.9-3.4-8.7-0.2-2.7 0.2-6.1 1.2-8.5 0.8-2.2 3.2-5.6 5.2-7.5 2.2-2.2 5.3-3.9 8.2-4.6 2.6-0.7 6-0.9 7.7-0.7zm-111 6.1c3.3 0.2 10.3 1 15.5 1.8 5.2 0.8 14 2.9 19.5 4.6 5.5 1.8 14.7 5.6 20.5 8.6 5.8 2.9 13.9 7.8 18 10.8 4.1 3 10.2 8 13.5 11.2 3.4 3.1 8.4 8.4 11.2 11.7 2.8 3.3 6.7 8.4 8.7 11.3 2 2.8 5.4 8.7 7.5 13 2.2 4.2 5.2 10.9 6.6 14.7 1.5 3.9 3.8 11.3 5.1 16.5 1.4 5.2 2.9 14.2 3.5 20 0.6 5.8 0.9 15.5 0.5 21.5-0.3 6.1-0.8 12.1-1.1 13.5-0.2 1.4-1 5-1.6 8-0.6 3-2.4 9.5-4.1 14.5-1.6 5-5.4 13.7-8.4 19.5-3 5.8-7.4 13.2-9.7 16.5-2.3 3.3-9.4 11.2-15.7 17.5-6.9 7-14.9 13.8-20 17.2-4.7 3.1-11.2 7-14.5 8.6-3.3 1.6-7.6 3.7-9.5 4.5-1.9 0.9-6.7 2.6-10.5 3.8-3.8 1.2-7.9 2.5-9 3-1.1 0.5-6.3 1.6-11.5 2.4-5.2 0.8-14.2 1.5-20 1.6-5.8 0-13.4-0.3-17-0.6-3.6-0.4-10.5-1.6-15.5-2.7-5-1.1-10.8-2.7-13-3.5-2.2-0.8-4.9-1.8-6-2.2-1.1-0.4-5.9-2.7-10.8-4.9-4.8-2.3-11.9-6.2-15.7-8.7-3.8-2.5-10.5-7.5-14.7-11.2-4.3-3.8-9.4-8.6-11.3-10.7-1.9-2.2-4-4.4-4.5-5-0.5-0.6-2.4-2.9-4.1-5.1-1.6-2.2-4.4-6-6.1-8.5-1.7-2.5-5.4-9-8.1-14.5-2.8-5.5-6.1-13.6-7.5-18-1.4-4.4-3-10.5-3.5-13.5-0.6-3-1.6-8.9-2.2-13-0.6-4.1-1-12.4-0.9-18.5 0-6 0.8-15 1.5-20 0.8-4.9 2.8-13.5 4.5-19 1.7-5.5 5.3-14.3 7.8-19.5 2.6-5.2 7.2-13.1 10.1-17.5 3-4.4 10.4-13 16.5-19 6-6.1 14.2-13.1 18-15.7 3.8-2.5 10.8-6.6 15.5-9.1 4.7-2.5 12.5-5.9 17.5-7.5 5-1.7 11.5-3.7 14.5-4.5 3-0.8 7.3-1.8 9.5-2.2 2.2-0.5 8.7-1.1 14.5-1.4 5.8-0.4 13.2-0.5 16.5-0.3zm-165 187.2c1.9 0 4.5 0.5 5.7 1.1 1.3 0.6 3.1 2.1 4 3.3 1.1 1.2 1.8 3.9 1.8 6.6 0.1 3-0.6 5.4-2 7.3-1.1 1.5-3.7 3.2-5.8 3.8-3 0.9-4.4 0.8-7.5-0.5-2-0.9-4.5-2.8-5.4-4.3-0.9-1.6-1.7-4.5-1.7-6.6-0.1-3.2 0.5-4.4 3.6-7.3 2.8-2.5 4.7-3.4 7.3-3.4zm26.5 50c4.7 0 7.9 0.7 11.5 2.4 2.7 1.2 6.8 4.3 8.9 6.7 2.2 2.4 4.6 6 5.4 7.9 0.8 1.9 1.5 6.2 1.5 9.5 0 3.5-0.7 7.7-1.7 10-0.9 2.2-3.4 5.7-5.4 7.9-2 2.1-6 4.9-8.7 6.2-3.7 1.7-6.7 2.4-11.5 2.4-4.8 0-7.8-0.7-11.5-2.4-2.8-1.3-6.4-3.9-8.2-5.7-1.8-1.9-4.2-5.6-5.4-8.4-1.6-3.4-2.3-6.8-2.2-10.5 0-3 0.8-7.2 1.7-9.2 0.9-2.1 3.3-5.7 5.3-8 2.1-2.2 6-5.2 8.8-6.4 3.6-1.7 6.8-2.4 11.5-2.4zm-14.3 15.8c-1.5 1.8-3 4.9-3.3 7-0.4 2-0.4 5.3 0 7.2 0.3 1.9 1.3 4.5 2.1 5.8 0.8 1.2 3 3.3 4.7 4.7 1.8 1.4 5.1 2.8 7.3 3.1 2.2 0.4 5.7 0.4 7.7 0 2.2-0.3 5.4-2 7.5-3.8 2-1.8 4.2-4.8 5-6.5 0.7-1.8 1.3-4.9 1.3-6.8 0-1.9-0.5-4.7-1.1-6.2-0.6-1.6-2-3.9-3.2-5.2-1.2-1.3-4-3.2-6.2-4.2-2.2-1-5.6-1.9-7.5-1.9-1.9 0-5.3 0.9-7.5 1.9-2.2 0.9-5.2 3.2-6.8 4.9zm251.9-242c-0.3 1.2 0.1 3.8 0.9 5.7 1.1 2.5 2.5 3.8 4.7 4.5 2.1 0.7 4.2 0.7 5.8 0.1 1.4-0.5 3.3-1.7 4.3-2.7 1.1-1.2 1.8-3.5 1.8-5.9 0.1-3.1-0.5-4.5-2.5-6.2-1.7-1.5-3.9-2.3-6.4-2.3-2.7 0-4.5 0.7-5.9 2.3-1.1 1.2-2.3 3.2-2.7 4.5zm-139.1 41.7c-2.8 1-7.9 3.3-11.5 5.2-3.6 1.9-8.9 5.3-11.9 7.6-3 2.3-8.4 7.4-12 11.4-3.6 3.9-8.4 10.2-10.7 14-2.2 3.7-5.2 9.7-6.7 13.3-1.4 3.6-3.3 9.4-4.2 13-0.8 3.6-1.7 9.9-1.9 14-0.2 4.1-0.1 11.3 0.4 16 0.4 4.7 1.3 10.3 2 12.5 0.7 2.2 2.7 7.6 4.4 12 1.7 4.4 5.3 11.4 8.1 15.5 2.7 4.1 8.1 10.7 12 14.6 3.8 3.8 10.2 9.1 14 11.6 3.8 2.5 9.5 5.7 12.5 7 3 1.4 8.4 3.5 12 4.6 3.6 1.1 9 2.3 12 2.7 3 0.3 7.3 0.8 9.5 1 2.2 0.1 8.3-0.1 13.5-0.6 5.2-0.5 13.1-2.1 17.5-3.5 4.4-1.4 11-4.1 14.7-6 3.8-1.9 9.8-5.8 13.5-8.6 3.7-2.9 9.6-8.8 13.2-13 3.6-4.2 8.5-11 10.7-15 2.3-4 4.9-9.5 5.9-12.3 0.9-2.7 2.3-7.2 3.1-10 0.8-2.7 1.7-10.6 2.1-17.5 0.4-7.9 0.1-15.1-0.6-19.5-0.7-3.9-1.7-8.6-2.3-10.5-0.6-1.9-2.2-6.4-3.6-10-1.4-3.6-3.9-8.7-5.6-11.5-1.6-2.7-5.6-8.1-8.8-12-3.1-3.9-7.4-8.4-9.5-10-2.1-1.6-5.6-4.3-7.8-5.9-2.2-1.6-6.9-4.4-10.5-6.2-3.6-1.7-8.8-4-11.5-4.9-2.8-0.9-7.9-2.3-11.5-3.1-3.6-0.7-11.2-1.3-17-1.3-5.8 0.1-14.5 0.9-19.5 1.8-5 1-11.3 2.6-14 3.6zm531.7 4.5c3.6 0 5.4 0.6 7.3 2.3 1.4 1.2 2.9 3.6 3.4 5.2 0.4 1.6 0.4 4.5-0.1 6.3-0.4 1.7-2 4.1-3.6 5.2-1.7 1.4-4.2 2.1-7 2-3 0-5.1-0.7-7.2-2.5-1.8-1.5-3.2-3.8-3.6-5.7-0.3-1.8-0.1-4.5 0.5-6 0.6-1.6 2.1-3.7 3.3-4.8 1.6-1.4 3.6-2 7-2zm-51.2 12h19v16h12v17h-12v15c0 14 0.1 15.1 2 16 1.1 0.6 3.8 1 10 1v17.5l-8.7-0.6c-6.2-0.4-10-1.3-12.8-2.8-2.4-1.2-5-3.8-6.5-6.4-2.4-4-2.5-5-3-39.7h-8v-17h8zm-228.5 15.6c3.3 0.3 8.2 1.6 11 2.8 2.7 1.3 6.3 3.9 7.9 5.8 1.6 1.8 4 5.8 5.4 8.8 1.6 3.6 2.7 8.2 3.7 21h-43.5l0.6 2.8c0.3 1.5 1.2 3.7 2 5 0.8 1.2 3 2.9 4.9 3.7 2.3 1 4.6 1.2 6.7 0.8 1.7-0.5 4.2-2 5.5-3.5 2.2-2.7 2.7-2.8 11.8-2.8 8.4 0 9.5 0.2 9.5 1.8 0 0.9-1.4 4.1-3 7-1.7 2.8-4.9 6.6-7.3 8.3-2.3 1.6-6.7 3.7-9.7 4.6-3.5 1-7.5 1.4-11 1.1-3-0.3-7.9-1.6-10.9-2.9-3.5-1.6-7-4.2-9.8-7.4-2.4-2.7-5.1-7-5.9-9.5-0.8-2.5-1.8-7.6-2.1-11.5-0.5-5.5-0.1-8.5 1.5-14 1.5-5.1 3.3-8.3 6.4-11.9 2.4-2.7 6.1-5.8 8.3-6.9 2.2-1 5.8-2.3 8-2.8 2.2-0.4 6.7-0.6 10-0.3zm-13.3 21.6c-1.2 1.8-2.2 3.9-2.2 4.6 0 0.9 3.1 1.2 12 1.2h12c-0.9-4.3-1.9-6.3-2.8-7.4-0.9-1-3.2-2.5-5-3.2-1.7-0.8-3.8-1.4-4.5-1.4-0.6 0.1-2.6 0.7-4.3 1.5-1.6 0.8-4 2.9-5.2 4.7zm199.3-21.6c3.3 0.3 8.2 1.6 11 2.9 2.8 1.3 6.8 4.3 8.9 6.7 2.2 2.3 4.9 6.3 6 8.8 1.2 2.8 2.1 7.6 2.4 12.5 0.3 5.4 0 9.8-1.1 13.5-0.8 3-3.1 7.5-4.9 10-1.9 2.5-5.4 5.9-7.8 7.5-2.5 1.7-7.2 3.7-10.5 4.4-3.8 0.8-8 1.1-11.5 0.7-3-0.4-7.3-1.5-9.5-2.5-2.2-0.9-5.8-3.3-8-5.3-2.3-2-5.2-6.2-7-9.9-2.6-5.7-3-7.5-3-15.9 0-8.1 0.4-10.3 2.6-15 1.4-3 3.7-6.9 5.1-8.5 1.4-1.6 4.7-4.2 7.4-5.7 2.7-1.5 6.9-3.2 9.4-3.7 2.5-0.5 7.2-0.8 10.5-0.5zm-14.2 23.9c-1.1 2-1.7 5.1-1.7 9.5 0 4.9 0.5 7.4 2.2 10.3 1.2 2 3.1 4.1 4.2 4.7 1.1 0.6 3.9 1 6.3 1 2.4 0 5.2-0.7 6.6-1.7 1.4-1 3.3-3.6 4.3-5.8 1-2.2 1.8-6 1.8-8.5 0-2.5-0.9-6.4-2-8.7-1.2-2.6-3.2-4.9-5-5.8-1.7-0.8-4.5-1.5-6.2-1.5-1.8 0-4.5 0.8-6 1.8-1.5 0.9-3.5 3.1-4.5 4.7zm231.2-23.9c3.3 0.3 8.3 1.6 11 2.8 2.8 1.3 6.3 3.9 7.9 5.8 1.6 1.8 4 5.8 5.4 8.8 1.6 3.6 2.7 8.2 3.7 21h-43.5l0.6 2.7c0.3 1.6 1.2 3.8 2 5 0.8 1.3 3 3 4.9 3.8 2.3 1 4.6 1.2 6.7 0.7 1.7-0.4 4.2-1.9 5.5-3.5 2.2-2.6 2.7-2.7 11.8-2.7 8.4 0 9.5 0.2 9.5 1.7 0 1-1.4 4.2-3 7-1.7 2.9-4.9 6.7-7.2 8.4-2.4 1.6-6.8 3.7-9.8 4.6-3.5 1-7.5 1.4-11 1.1-3-0.3-7.9-1.6-10.9-2.9-3.5-1.6-7-4.2-9.8-7.4-2.4-2.7-5.2-7.2-6.1-10-1.1-3.1-1.7-8.2-1.7-13.5 0-5.4 0.6-10.3 1.7-13.5 1-2.7 3.7-7.2 6-9.9 2.4-2.7 6.1-5.8 8.3-6.9 2.2-1 5.8-2.3 8-2.8 2.2-0.4 6.7-0.6 10-0.3zm-13.3 21.6c-1.2 1.8-2.2 3.9-2.2 4.5 0 1 3.1 1.3 12 1.3h12c-0.9-4.3-1.9-6.3-2.8-7.4-0.9-1-3.2-2.5-4.9-3.2-1.8-0.8-3.9-1.4-4.5-1.4-0.7 0.1-2.7 0.7-4.4 1.5-1.6 0.8-4 2.9-5.2 4.7zm-352.2-21.2h19v7l4.6-3.3c3.8-2.7 5.7-3.3 11.2-3.6 3.9-0.2 8.4 0.2 10.7 1 2.2 0.7 5.9 3.2 12.5 9.9l3.2-3.6c1.8-1.9 5.1-4.4 7.3-5.5q4-1.9 10.5-1.9c4.1 0 8 0.7 10.5 1.8 2.2 1 5.6 3.7 7.5 5.9 1.9 2.2 4.1 5.8 4.9 7.9 1 2.8 1.5 10.6 2.1 50.4h-19v-19.5c0-15.1-0.3-20.3-1.5-23-0.8-2-2.8-4.2-4.5-5-1.7-0.8-4.5-1.5-6.3-1.5-1.9-0.1-4.4 0.9-6.1 2.2-1.6 1.3-3.5 3.8-4.3 5.5-0.9 2.4-1.3 8.8-1.3 41.3h-19v-42l-2.8-3.1c-1.9-2.1-3.9-3.2-6.7-3.5-2.2-0.3-5.2-0.1-6.8 0.5-1.5 0.6-3.6 2.6-4.7 4.3-1.8 3-2 5.1-2 43.8h-19zm233 0h19v66h-19zm47.5 0.5l6.5 22.8c3.6 12.5 6.8 22.2 7.1 21.5 0.4-0.7 3-9.6 5.8-19.8 2.9-10.2 5.7-20 7.1-25h10c9 0 10 0.2 9.5 1.7-0.3 1-5.1 15.7-21.2 63.8h-23.6l-10.4-31c-5.7-17.1-10.6-31.8-10.9-32.8-0.5-1.6 0.3-1.7 20.1-1.2zm-347.5 90.5h33v9h-25v14h22v8l-21.5 0.5v15h25l0.5 8.5h-34zm64 0h3.2c3.2-0.1 3.8 0.7 28.3 37.3l0.4-37.3h8.1v55h-3.5c-3.4 0-3.8-0.4-28-36.5l-0.5 36.5h-8zm94.1 0.2c6.1 0.2 8.2 0.8 11.2 2.8 1.9 1.4 4 3.2 4.5 4 0.8 1.1 0.4 2.3-3.3 7.3l-4-2.7c-3-1.9-5.3-2.6-9-2.6-3.6 0-6 0.6-8.4 2.2-1.9 1.3-4.3 4.1-5.4 6.3-1.2 2.2-2.3 5.8-2.5 8-0.2 2.2 0.1 6 0.8 8.5 0.8 2.7 2.7 5.9 4.9 8.1 2.3 2.4 5 3.9 7.6 4.4 2.7 0.5 5.3 0.3 12-2l0.5-17.5h7v10.7c0.1 9.1-0.2 11.1-1.7 12.4-1 0.9-3.1 2.3-4.8 3.1-1.7 0.9-5 1.9-7.5 2.2-2.5 0.4-6.3 0.3-8.5-0.3-2.2-0.5-5.9-2.4-8.3-4.1-2.6-1.8-5.2-5-6.9-8.3-2-4-2.7-7.1-3.1-13.2-0.3-6.4 0-9.1 1.7-13.5 1.2-3.1 3.7-7.1 5.8-9.2 2.1-2 5.1-4.4 6.8-5.3 2.2-1.2 5.1-1.5 10.6-1.3zm47.9-0.2h8v55h-8zm41 0h3.2c3.2-0.1 3.8 0.7 28.3 37.3l0.4-37.3h8.1v55h-3.5c-3.4 0-3.8-0.4-28-36.5l-0.5 36.5h-8zm73 0h33v9h-25v14h22v8l-21.5 0.5v15h25l0.5 8.5h-34zm-509-111.8c3.6-0.1 9.2 0.3 12.5 0.8 3.3 0.6 7.3 1.5 9 2.1 1.7 0.6 6.8 2.9 11.5 5.2 6.9 3.4 10.2 5.9 17.5 13.2 5.7 5.7 10.2 11.2 12.1 15 1.8 3.3 4.1 8.7 5.2 12 1.2 3.3 2.6 9.1 3.3 13 0.7 4.1 0.9 11.1 0.6 17-0.4 6.7-1.3 12.3-3 17-1.3 3.9-4 9.9-5.9 13.5-2 3.6-6.9 10-11 14.4-4 4.3-10.2 9.7-13.8 12.1-3.6 2.3-9.4 5.4-13 6.8-3.6 1.4-9.7 3.1-13.5 3.8-4.2 0.7-11.3 1-17.5 0.6-7.1-0.3-12.6-1.2-17-2.7-3.6-1.3-9.4-3.8-13-5.7-3.6-2-9-5.5-12-8-3-2.5-7.9-7.3-10.7-10.7-2.9-3.3-7-9.7-9.2-14.1-2.1-4.4-4.7-11.1-5.7-15-1.3-4.9-1.8-10.3-1.7-18 0.1-9.3 0.6-12.4 3.1-20 1.6-4.9 4.3-11.5 6-14.5 1.7-3 5.5-8.3 8.4-11.6 2.9-3.4 7.5-8 10.3-10.3 2.7-2.3 8.6-5.9 13-8 4.4-2.2 10.9-4.7 14.5-5.5 3.6-0.8 8.1-1.7 10-1.9 1.9-0.2 6.4-0.5 10-0.5zm11.5 47.2c-1.7 1-4.2 3.5-5.6 5.5-1.4 2-3.1 5.4-3.9 7.6-0.8 2.6-1 5.8-0.5 9 0.3 2.8 1.4 6.4 2.2 8 0.8 1.6 2.7 4.3 4.2 5.8 1.4 1.6 4.3 3.7 6.3 4.8 2.1 1 6.2 2.2 9 2.5 4.4 0.5 6.2 0.2 11-2 3.8-1.7 7-4.1 9.2-6.8 1.8-2.4 3.9-6.1 4.6-8.3 0.8-2.5 1-6 0.6-9.2-0.3-2.9-1.2-6.3-1.9-7.5-0.6-1.3-2.5-3.8-4.2-5.6-1.7-1.9-4.8-4.3-7-5.4-2.2-1.1-6.5-2.2-9.5-2.4-3-0.2-6.8 0.2-8.5 0.9-1.7 0.7-4.3 2.1-6 3.1zm620.3-89.8h-9.6v-5.7h26.2v5.7h-9.6v24.4h-7zm48.2 24.4l-0.1-18.1-8.8 14.9h-3.2l-8.8-14.5v17.7h-6.5v-30.1h5.7l11.3 18.7 11.1-18.7h5.7l0.1 30.1z"/></svg>