<?xml version="1.0" encoding="UTF-8"?>
<svg id="Layer_1" xmlns="http://www.w3.org/2000/svg" version="1.1" viewBox="0 0 24 24">
  <!-- Generator: Adobe Illustrator 29.8.1, SVG Export Plug-In . SVG Version: 2.1.1 Build 2)  -->
  <defs>
    <style>
      .st0 {
        fill-rule: evenodd;
      }
    </style>
  </defs>
  <path class="st0" d="M12,0l-2.5,6.5c1.57-.8,3.43-.8,5,0L12,0ZM2,2l4.5,7.5c.56-1.36,1.64-2.44,3-3L2,2ZM0,12l6.5,2.5c-.8-1.57-.8-3.43,0-5L0,12ZM2,22l7.5-4.5c-1.36-.56-2.44-1.64-3-3l-4.5,7.5ZM12,24l2.5-6.5c-1.57.8-3.43.8-5,0l2.5,6.5ZM22,22l-4.5-7.5c-.56,1.36-1.64,2.44-3,3l7.5,4.5ZM24,12l-6.5-2.5c.8,1.57.8,3.43,0,5l6.5-2.5ZM22,2l-7.5,4.5c1.36.56,2.44,1.64,3,3l4.5-7.5Z"/>
  <path d="M12,16.26c-2.35,0-4.26-1.91-4.26-4.26s1.91-4.26,4.26-4.26,4.26,1.91,4.26,4.26-1.91,4.26-4.26,4.26ZM12,8.74c-1.8,0-3.26,1.46-3.26,3.26s1.46,3.26,3.26,3.26,3.26-1.46,3.26-3.26-1.46-3.26-3.26-3.26Z"/>
</svg>