<svg version="1.2" xmlns="http://www.w3.org/2000/svg" viewBox="59.999999999999986 772 382.00000000000006 164" width="384" height="164"><defs><linearGradient id="P" gradientUnits="userSpaceOnUse"/><linearGradient id="g1" x2="1" href="#P" gradientTransform="matrix(884.362,0,0,88.739,67.118,978.2)"><stop stop-color="#dd4a9a"/><stop offset=".45" stop-color="#84cfc5"/><stop offset="1" stop-color="#32ace2"/></linearGradient></defs><style>.a{fill:url(#g1)}.b{fill:none;stroke:#f2f1f1;stroke-miterlimit:10;stroke-width:4}.c{fill:none;stroke:#f2f1f1;stroke-miterlimit:10;stroke-width:7}</style><path fill-rule="evenodd" class="a" d="m90 1043.4v-11.1h29.2v-20.6h-29.2v-10h33.2v-21.6h-56.1v84.9h57.4v-21.6zm193.9 21.6l-0.2-84.9h-19.1l-21.9 45.3-22.5-45.3h-19.1v84.9h21.2v-37.3l15 29.7h10.2l15-31.1 0.2 38.7zm116.4 1.9c22.5 0 38.9-18.6 38.9-44.3 0-25.7-16.4-44.4-38.9-44.4-22.5 0-38.9 18.7-38.9 44.4 0 25.7 16.4 44.3 38.9 44.3zm0-23.1c-8.6 0-15.5-8-15.5-21.2 0-13.2 6.9-21.2 15.5-21.2 8.6 0 15.5 8 15.5 21.2 0 13.2-6.9 21.2-15.5 21.2zm128.8 21.2h23.3v-62.7h20.2v-22.2h-63.7v22.2h20.2zm118 0h23.3v-84.8h-23.3zm152.9-84.9l-16.9 49.6-16.4-49.6h-25.1l29.2 84.9h22.9l29.1-84.9zm117.1 63.3v-11.2h29.1v-20.6h-29.1v-9.9h33.2v-21.6h-56.1v84.9h57.4v-21.6z"/><path fill-rule="evenodd" class="b" d="m1190.5 856.4v-11.1h29.2v-20.6h-29.2v-10h33.2v-21.6h-56.1v84.9h57.4v-21.6zm193.9 21.6l-0.2-84.9h-19.1l-21.9 45.3-22.5-45.3h-19.1v84.9h21.2v-37.3l15 29.7h10.2l15-31.1 0.2 38.7zm116.4 1.9c22.5 0 38.9-18.6 38.9-44.3 0-25.7-16.4-44.4-38.9-44.4-22.5 0-38.9 18.7-38.9 44.4 0 25.7 16.4 44.3 38.9 44.3zm0-23.1c-8.6 0-15.5-8-15.5-21.2 0-13.2 6.9-21.2 15.5-21.2 8.6 0 15.5 8 15.5 21.2 0 13.2-6.9 21.2-15.5 21.2zm128.8 21.2h23.3v-62.7h20.2v-22.2h-63.7v22.2h20.2zm118 0h23.3v-84.8h-23.3zm152.9-84.9l-16.9 49.6-16.4-49.6h-25.1l29.2 84.9h22.9l29.1-84.9zm117.1 63.3v-11.2h29.1v-20.6h-29.1v-9.9h33.2v-21.6h-56.1v84.9h57.4v-21.6z"/><path fill-rule="evenodd" class="c" d="m68.9 852.8c-6.2 40.7 13 69.2 49.4 69.2 30.9 0 52.5-22 62.5-41.8l5.7-36.6h-61.3l-4.2 27.1h33c-6.7 11.8-16.1 17.9-27.5 17.9-19.4 0-27.8-12.5-24.3-35.8 3.2-20.8 15.4-34.1 31.9-34.1 9.2 0 15.2 4 17.7 11.2h35.4c-0.3-28.3-18.1-46.1-47.9-46.1-36.2 0-64.2 28.5-70.4 69zm236-67.6h-75.6l-21 135.8h75.8l4.5-30.1h-42.7l3.8-24.6h37.8l4.5-28.7h-37.7l3.3-22.6h42.8zm24.1 30.1h31.2l-16.2 105.8h33l16.2-105.8h31.4l4.7-30.1h-95.6z"/></svg>